<svg width="30" height="30" fill="none" xmlns="http://www.w3.org/2000/svg"><path d="M17.028 4.164h0a7.18 7.18 0 012.334-1.64 6.863 6.863 0 012.742-.574c.94 0 1.872.195 2.742.574a7.18 7.18 0 012.334 1.64h0a7.637 7.637 0 011.568 2.466 7.97 7.97 0 01.552 2.919 7.966 7.966 0 01-.552 2.919 7.637 7.637 0 01-1.568 2.466h0l-1.522 1.598L15 27.735 4.34 16.532l-1.52-1.598C1.466 13.51.7 11.574.7 9.549c0-2.026.766-3.963 2.12-5.385C4.172 2.742 5.999 1.95 7.895 1.95c1.897 0 3.724.791 5.076 2.213l1.521 1.599a.7.7 0 001.015 0l1.521-1.6z" stroke="#000" stroke-width="1.4" stroke-linecap="round" stroke-linejoin="round"/></svg>