<svg width="22" height="22" fill="none" xmlns="http://www.w3.org/2000/svg"><path fill-rule="evenodd" clip-rule="evenodd" d="M9.092 1.375c-4.262 0-7.717 3.528-7.717 7.88 0 4.353 3.455 7.882 7.717 7.882 1.85 0 3.548-.665 4.877-1.774l5.308 5.043a.79.79 0 001.133-.042.831.831 0 00-.04-1.158l-5.27-5.005a7.952 7.952 0 001.708-4.945c0-4.353-3.455-7.881-7.716-7.881zm-6.113 7.88c0-3.447 2.737-6.242 6.113-6.242 3.375 0 6.112 2.795 6.112 6.243 0 3.447-2.737 6.242-6.112 6.242-3.376 0-6.113-2.795-6.113-6.242z" fill="#000"/></svg>