<svg width="30" height="30" fill="none" xmlns="http://www.w3.org/2000/svg"><path fill-rule="evenodd" clip-rule="evenodd" d="M12.274 1.25C6.185 1.25 1.25 6.29 1.25 12.508c0 6.218 4.935 11.259 11.024 11.259 2.643 0 5.069-.95 6.967-2.534l7.583 7.204a1.13 1.13 0 001.62-.06 1.188 1.188 0 00-.06-1.654l-7.526-7.15a11.36 11.36 0 002.44-7.065c0-6.218-4.936-11.258-11.024-11.258zM3.542 12.508c0-4.925 3.91-8.918 8.732-8.918 4.822 0 8.732 3.993 8.732 8.918 0 4.925-3.91 8.918-8.732 8.918-4.823 0-8.732-3.992-8.732-8.918z" fill="#000"/></svg>