<svg width="17" height="30" fill="none" xmlns="http://www.w3.org/2000/svg"><path d="M4.607 6.27C2.59 9.774.947 12.65.959 12.662c.012.006 1.656-.766 3.666-1.715l3.647-1.732 3.571 1.685c1.963.931 3.625 1.715 3.684 1.75.1.047.094.024-.036-.2-.348-.601-7.1-12.352-7.16-12.446-.047-.089-.719 1.037-3.724 6.264z" fill="url(#paint0_linear_48_112)"/><path d="M5.171 12.64a868.316 868.316 0 01-3.37 1.597l-.283.135 3.347 1.585c1.838.873 3.377 1.586 3.406 1.586.106-.006 6.6-3.112 6.618-3.165.012-.03-.666-.377-1.503-.772-.837-.395-2.333-1.102-3.324-1.573l-1.803-.855-3.088 1.462z" fill="url(#paint1_linear_48_112)"/><path d="M4.107 22.828C6.364 26.782 8.238 30.006 8.262 30c.053-.018 8.25-14.308 8.22-14.332-.011-.006-1.844.86-4.083 1.921-2.234 1.067-4.096 1.94-4.137 1.94-.041 0-1.78-.814-3.86-1.804A667.992 667.992 0 00.306 15.78L0 15.645l4.107 7.183z" fill="url(#paint2_linear_48_112)"/><defs><linearGradient id="paint0_linear_48_112" x1="8.277" y1="12.671" x2="8.277" y2="0" gradientUnits="userSpaceOnUse"><stop stop-color="#07C6BA"/><stop offset="1" stop-color="#02FF93"/></linearGradient><linearGradient id="paint1_linear_48_112" x1="8.203" y1="17.543" x2="8.203" y2="11.178" gradientUnits="userSpaceOnUse"><stop stop-color="#07C6BA"/><stop offset="1" stop-color="#02FF93"/></linearGradient><linearGradient id="paint2_linear_48_112" x1="8.241" y1="30" x2="8.241" y2="15.645" gradientUnits="userSpaceOnUse"><stop stop-color="#07C6BA"/><stop offset="1" stop-color="#05E887"/></linearGradient></defs></svg>